<svg version="1.1" xmlns="http://www.w3.org/2000/svg" width="32" height="32" viewBox="0 0 32 32">
  <title>backpack</title>
  <path d="M14.24 13.888l2.048 2.048 2.080-2.080-2.080-2.048-2.048 2.080zM16.288 14.432l-0.544-0.544 0.544-0.576 0.544 0.544-0.544 0.576zM30.24 13.856h-1.44v-5.856h0.544c0.288 0 0.512-0.256 0.512-0.544v-3.104c0-1.216-0.992-2.208-2.208-2.208h-6.304v-0.96c0-0.64-0.544-1.184-1.216-1.184h-8.256c-0.672 0-1.216 0.544-1.216 1.184v0.96h-6.304c-1.216 0-2.208 0.992-2.208 2.208v3.104c0 0.288 0.224 0.544 0.512 0.544h0.544v5.856h-1.44c-0.96 0-1.76 0.8-1.76 1.76v9.728c0 1.312 1.088 2.4 2.4 2.4h0.8v0.512c0 1.888 1.408 3.456 3.2 3.712v0.032h19.2v-0.032c1.792-0.256 3.2-1.824 3.2-3.712v-0.512h0.8c1.312 0 2.4-1.088 2.4-2.4v-9.728c0-0.96-0.8-1.76-1.76-1.76zM11.744 1.184c0-0.064 0.064-0.128 0.128-0.128h8.256c0.096 0 0.128 0.064 0.128 0.128v0.96h-8.512v-0.96zM3.2 4.352c0-0.64 0.512-1.152 1.152-1.152h23.296c0.64 0 1.152 0.512 1.152 1.152v2.592h-25.6v-2.592zM24 17.056h-1.056v-1.056c0-0.288-0.256-0.544-0.544-0.544s-0.544 0.256-0.544 0.544v1.056h-1.056v-3.2h3.2v3.2zM21.344 18.144h2.112v0.352l-1.056 1.408-1.056-1.408v-0.352zM23.456 12.8h-2.112v-4.8h2.112v4.8zM11.2 17.056h-1.056v-1.056c0-0.288-0.256-0.544-0.544-0.544s-0.544 0.256-0.544 0.544v1.056h-1.056v-3.2h3.2v3.2zM8.544 18.144h2.112v0.352l-1.056 1.408-1.056-1.408v-0.352zM10.656 12.8h-2.112v-4.8h2.112v4.8zM2.4 26.656c-0.736 0-1.344-0.576-1.344-1.312v-9.728c0-0.384 0.32-0.672 0.704-0.672h1.44v11.712h-0.8zM7.456 30.944v-3.744h17.088v3.744h-17.088zM24.544 26.144h-17.088v-2.688h17.088v2.688zM27.744 28.256c0 1.312-0.928 2.368-2.144 2.624v-8.48h-19.2v8.48c-1.216-0.256-2.144-1.312-2.144-2.624v-20.256h3.2v4.8h-0.512v5.344h0.512v0.512c0 0.128 0.064 0.224 0.128 0.32l1.6 2.144c0.096 0.128 0.256 0.224 0.416 0.224s0.32-0.096 0.416-0.224l1.6-2.144c0.096-0.096 0.128-0.192 0.128-0.32v-0.512h0.512v-5.344h-0.512v-4.8h8.512v4.8h-0.512v5.344h0.512v0.512c0 0.128 0.064 0.224 0.128 0.32l1.6 2.144c0.096 0.128 0.256 0.224 0.416 0.224s0.32-0.096 0.416-0.224l1.6-2.144c0.096-0.096 0.128-0.192 0.128-0.32v-0.512h0.512v-5.344h-0.512v-4.8h3.2v20.256zM30.944 25.344c0 0.736-0.608 1.312-1.344 1.312h-0.8v-11.712h1.44c0.384 0 0.704 0.288 0.704 0.672v9.728z"></path>
</svg>
