<svg version="1.1" xmlns="http://www.w3.org/2000/svg" width="32" height="32" viewBox="0 0 32 32">
  <title>danger</title>
  <path d="M16.992 20.128c0 0-0.8-0.384-1.92 0 0 0 0-1.408 0.992-1.408s0.928 1.408 0.928 1.408zM21.44 16.32c0 1.312-1.088 2.4-2.4 2.4s-2.4-1.088-2.4-2.4 1.088-2.4 2.4-2.4 2.4 1.088 2.4 2.4zM15.36 16.32c0 1.312-1.088 2.4-2.4 2.4s-2.4-1.088-2.4-2.4 1.088-2.4 2.4-2.4c1.312 0 2.4 1.088 2.4 2.4zM27.136 19.68c-0.544 0-1.056 0.096-1.536 0.256l-1.024-1.024c0.288-0.928 0.48-1.888 0.48-2.912s-0.192-1.984-0.48-2.88l1.024-1.024c0.48 0.16 0.992 0.256 1.536 0.256 2.432 0 4.416-1.984 4.416-4.448 0-2.016-1.344-3.712-3.2-4.224-0.512-1.856-2.208-3.2-4.224-3.2-2.464 0-4.448 1.984-4.448 4.416 0 0.544 0.096 1.056 0.256 1.536l-1.024 1.024c-0.896-0.32-1.888-0.48-2.88-0.48-1.024 0-2.016 0.16-2.912 0.48l-1.024-1.024c0.16-0.48 0.256-0.992 0.256-1.536 0-2.432-1.984-4.416-4.416-4.416-2.016 0-3.744 1.344-4.256 3.2-1.856 0.512-3.2 2.208-3.2 4.224 0 2.464 1.984 4.448 4.448 4.448 0.512 0 1.024-0.096 1.504-0.256l1.024 1.024c-0.288 0.896-0.448 1.888-0.448 2.88 0 1.024 0.16 1.984 0.48 2.88l-1.056 1.056c-0.48-0.16-0.992-0.256-1.504-0.256-2.464 0-4.448 1.984-4.448 4.416 0 2.016 1.344 3.744 3.2 4.256 0.512 1.856 2.24 3.2 4.256 3.2 2.432 0 4.416-1.984 4.416-4.448 0-0.512-0.096-0.992-0.256-1.472 0.288 0.096 0.576 0.128 0.864 0.128 0.544 0 1.088-0.16 1.536-0.416 0.448 0.256 0.96 0.416 1.504 0.416s1.088-0.16 1.536-0.416c0.448 0.256 0.96 0.416 1.504 0.416 0.32 0 0.608-0.064 0.896-0.128-0.16 0.448-0.256 0.96-0.256 1.472 0 2.464 1.984 4.448 4.448 4.448 2.016 0 3.712-1.344 4.224-3.2 1.856-0.512 3.2-2.24 3.2-4.256 0-2.432-1.984-4.416-4.416-4.416zM22.336 6.688c-0.448-0.48-0.736-1.12-0.736-1.824 0-1.376 1.152-2.528 2.56-2.528s2.528 1.152 2.528 2.528c0 0.192-0.032 0.352-0.064 0.544 0.192-0.064 0.352-0.064 0.544-0.064 1.376 0 2.528 1.152 2.528 2.528s-1.152 2.56-2.528 2.56c-0.704 0-1.344-0.288-1.824-0.736l-1.6 1.6c-0.768-1.216-1.792-2.24-3.008-3.008l1.6-1.6zM6.688 9.696c-0.48 0.448-1.12 0.736-1.792 0.736-1.408 0-2.56-1.152-2.56-2.56 0-1.376 1.152-2.528 2.56-2.528 0.16 0 0.32 0 0.512 0.064-0.032-0.192-0.064-0.352-0.064-0.544 0-1.376 1.152-2.528 2.56-2.528 1.376 0 2.528 1.152 2.528 2.528 0 0.704-0.288 1.344-0.736 1.824l1.632 1.632c-1.248 0.736-2.272 1.76-3.008 3.008l-1.632-1.632zM10.432 27.072c0 1.408-1.152 2.56-2.528 2.56-1.408 0-2.56-1.152-2.56-2.56 0-0.128 0-0.288 0.032-0.416-0.128 0.032-0.288 0.032-0.416 0.032-1.408 0-2.56-1.152-2.56-2.56 0-1.376 1.152-2.528 2.56-2.528 0.672 0 1.28 0.256 1.76 0.704l1.6-1.6c0.448 0.704 0.992 1.376 1.6 1.952 0 0 0 0.032 0 0.064 0 0.672 0.224 1.312 0.608 1.792l-0.8 0.8c0.448 0.48 0.704 1.088 0.704 1.76zM20.576 21.312c0.032 0.128 0.064 0.288 0.064 0.416 0 1.28-1.056 2.336-2.336 2.336-0.416 0-0.8-0.128-1.152-0.32-0.32 0.192-0.736 0.32-1.152 0.32s-0.8-0.128-1.152-0.32c-0.352 0.192-0.736 0.32-1.152 0.32-1.28 0-2.336-1.056-2.336-2.336 0-0.16 0.032-0.32 0.064-0.448-1.472-1.28-2.4-3.168-2.4-5.28 0-3.872 3.136-7.008 7.008-7.008 3.84 0 6.976 3.136 6.976 7.008 0 2.112-0.928 4.032-2.432 5.312zM27.104 26.688c-0.16 0-0.32 0-0.448-0.032 0.032 0.128 0.032 0.288 0.032 0.416 0 1.408-1.152 2.56-2.528 2.56-1.408 0-2.56-1.152-2.56-2.56 0-0.672 0.288-1.28 0.704-1.76l-0.8-0.8c0.352-0.512 0.576-1.12 0.576-1.792 0 0 0-0.032 0-0.032 0.64-0.576 1.184-1.248 1.632-1.984l1.6 1.6c0.48-0.448 1.088-0.704 1.792-0.704 1.376 0 2.528 1.152 2.528 2.528 0 1.408-1.152 2.56-2.528 2.56zM16.992 20.128c0 0-0.832-0.384-1.952 0 0 0 0-1.44 0.992-1.44s0.96 1.44 0.96 1.44zM21.44 16.32c0 1.312-1.088 2.4-2.4 2.4s-2.4-1.088-2.4-2.4 1.088-2.4 2.4-2.4 2.4 1.088 2.4 2.4zM15.36 16.32c0 1.312-1.088 2.4-2.4 2.4s-2.4-1.088-2.4-2.4 1.088-2.4 2.4-2.4 2.4 1.088 2.4 2.4z"></path>
</svg>
