<svg version="1.1" xmlns="http://www.w3.org/2000/svg" width="30" height="32" viewBox="0 0 30 32">
  <title>read</title>
  <path d="M14.848 7.072q0.16-0.16 0.48-0.384t1.504-0.832 2.656-1.12 4.064-0.864 5.6-0.384v21.44q-3.040 0-5.632 0.384t-4.096 0.864-2.624 1.088-1.504 0.928l-0.448 0.32q-0.128-0.128-0.416-0.384t-1.472-0.832-2.656-1.12-4.064-0.864-5.664-0.384v-21.44q3.008 0 5.568 0.384t4.096 0.864 2.656 1.056 1.536 0.928zM4.16 7.072v14.4q5.504 0.448 8.928 2.272v-14.368q-3.52-1.856-8.928-2.304zM25.568 21.472v-14.4q-5.376 0.448-8.896 2.304v14.368q3.456-1.824 8.896-2.272z"></path>
</svg>
