<svg version="1.1" xmlns="http://www.w3.org/2000/svg" width="31" height="32" viewBox="0 0 31 32">
  <title>settings</title>
  <path d="M17.92 3.488h-4.992l-1.44 5.696-5.632-1.632-2.528 4.352 4.256 4.096-4.256 4.064 2.528 4.32 5.632-1.6 1.44 5.696h4.992l1.408-5.696 5.696 1.6 2.464-4.32-4.224-4.064 4.224-4.096-2.464-4.352-5.696 1.632zM17.92 0.16q1.12 0 2.016 0.704t1.184 1.824l0.608 2.336 2.368-0.672q0.48-0.128 0.928-0.128 1.92 0 2.88 1.696l2.464 4.32q0.576 0.992 0.416 2.112t-0.96 1.92l-1.76 1.728 1.76 1.664q0.8 0.8 0.96 1.92t-0.416 2.144l-2.464 4.352q-0.96 1.632-2.88 1.632-0.448 0-0.928-0.096l-2.368-0.672-0.544 2.368q-0.288 1.12-1.184 1.824t-2.080 0.704h-4.992q-1.152 0-2.048-0.704t-1.184-1.824l-0.608-2.368-2.304 0.704q-0.48 0.128-0.928 0.128-1.92 0-2.88-1.696l-2.528-4.32q-0.576-0.992-0.416-2.144t0.992-1.952l1.76-1.664-1.76-1.696q-0.8-0.8-0.96-1.92t0.384-2.144l2.528-4.32q0.96-1.696 2.88-1.696 0.448 0 0.928 0.128l2.304 0.672 0.608-2.336q0.288-1.12 1.184-1.824t2.048-0.704h4.992zM15.424 12.672q-1.408 0-2.368 0.96t-0.96 2.368 0.96 2.368 2.368 0.96 2.368-0.992 0.992-2.336-0.992-2.336-2.368-0.992zM15.424 11.008q2.080 0 3.52 1.44t1.472 3.552-1.472 3.552-3.52 1.44-3.552-1.44-1.472-3.552 1.472-3.552 3.552-1.44z"></path>
</svg>
