<svg version="1.1" xmlns="http://www.w3.org/2000/svg" width="32" height="32" viewBox="0 0 32 32">
  <title>tags</title>
  <path d="M0 12.48v-7.68q0.064-0.864 0.672-1.472t1.376-0.608h7.712q1.376 0 2.816 0.896l12.064 13.248q0.544 0.736 0.544 1.536t-0.544 1.408l-8.96 8.864q-0.672 0.576-1.504 0.608t-1.376-0.608l-11.36-12.704q-1.44-1.728-1.44-3.488zM3.328 8.064q0 0.8 0.544 1.344 0.704 0.64 1.472 0.608t1.344-0.608q0.576-0.608 0.576-1.408t-0.576-1.376q-0.64-0.576-1.44-0.544t-1.376 0.544q-0.544 0.672-0.544 1.44zM13.44 2.784h2.944q2.304 0.128 3.488 1.44l11.392 12.704q0.544 0.672 0.544 1.536t-0.544 1.408l-8.96 8.864q-1.92 1.12-3.040-0.256l8.672-8.672q0.576-0.704 0.576-1.504t-0.576-1.44l-10.176-11.392q-0.768-0.992-2.272-1.792t-2.048-0.896z"></path>
</svg>
