<svg version="1.1" xmlns="http://www.w3.org/2000/svg" width="32" height="32" viewBox="0 0 32 32">
  <title>armor</title>
  <path d="M12.288 1.6c0 0 0.128 0 0.128 0s0.704 0 0.704 0c0 0 0.32 0.64 0.32 0.64s1.024 1.76 2.56 1.76c1.536 0 2.56-1.76 2.56-1.76s0.32-0.64 0.32-0.64c0 0 0.736 0 0.736 0s0.096 0 0.096 0c0 0 0.384 0 0.384 0s0.288 0.224 0.288 0.224c0 0 1.472 0.96 1.472 0.96 4.928 0.224 7.2 4.256 7.2 4.256s0.448 0.832 0.448 0.832c0 0-0.704 0.64-0.704 0.64-0.128 0.096-0.224 0.224-0.352 0.32 0.832 1.056 1.952 3.008 1.952 5.6 0 0 0 0.48 0 0.48s-0.32 0.352-0.32 0.352c0 0-0.576 0.576-1.504 1.024-0.736 0.384-1.792 0.704-3.072 0.832-0.256 2.592-0.8 4.384-1.024 4.96 0 0 1.088 4 1.088 4s0.192 0.672 0.192 0.672c0 0-0.544 0.544-0.544 0.544s-3.36 3.104-9.216 3.104c-5.856 0-9.216-3.104-9.216-3.104s-0.544-0.544-0.544-0.544c0 0 0.192-0.672 0.192-0.672s1.088-4.032 1.088-4.032c-0.256-0.704-0.768-2.4-0.992-4.928-1.312-0.128-2.336-0.448-3.104-0.832-0.928-0.448-1.472-1.024-1.472-1.024s-0.352-0.352-0.352-0.352c0 0 0-0.48 0-0.48 0-2.592 1.12-4.544 1.952-5.6-0.128-0.096-0.224-0.224-0.352-0.32 0 0-0.704-0.64-0.704-0.64s0.448-0.832 0.448-0.832c0 0 2.272-4.032 7.2-4.256 0 0 1.472-0.96 1.472-0.96s0.288-0.224 0.288-0.224c0 0 0.384 0 0.384 0zM11.936 4.48c0.064 0.224-0.032 0.32 0.32 0.896 0.512 0.864 1.632 1.92 3.744 2.912 2.112-0.992 3.264-2.080 3.744-2.912 0.352-0.576 0.288-0.672 0.32-0.896 0 0-0.16-0.096-0.16-0.096-0.672 0.896-1.792 2.016-3.904 2.016s-3.232-1.12-3.904-2.016c0 0-0.16 0.096-0.16 0.096zM5.568 7.552c1.056 1.088 1.952 2.24 2.624 3.488 0.672-0.064 1.44-0.128 2.176-0.512s1.312-0.928 1.728-1.728c-0.896-0.736-1.504-1.472-1.92-2.176-0.288-0.48-0.48-0.928-0.576-1.344-0.032 0-0.096 0-0.128 0-2.368 0.32-3.424 1.6-3.904 2.272zM21.824 6.624c-0.416 0.704-1.024 1.44-1.92 2.176 0.416 0.8 0.992 1.344 1.728 1.728s1.504 0.448 2.176 0.512c0.672-1.248 1.568-2.4 2.624-3.488-0.48-0.672-1.568-1.984-4.032-2.272-0.096 0.416-0.288 0.864-0.576 1.344zM11.488 12.608c-0.864 0.48-1.76 0.736-2.56 0.864-0.48 4.192 0.736 7.328 0.896 7.744 0.224 0.192 2.272 1.984 6.176 1.984 3.84 0 5.856-1.696 6.144-1.952 0.16-0.384 1.376-3.68 0.96-7.776-0.832-0.128-1.728-0.384-2.592-0.864-0.992-0.512-1.984-1.344-2.624-2.496-0.448 0.224-0.928 0.448-1.44 0.672 0 0-0.448 0.16-0.448 0.16s-0.448-0.16-0.448-0.16c-0.512-0.224-0.992-0.448-1.44-0.672-0.64 1.152-1.632 1.984-2.624 2.496zM4.064 13.824c0.16 0.096 0.128 0.128 0.448 0.288 0.448 0.224 1.088 0.448 1.888 0.576 0.032-0.544 0.064-1.12 0.16-1.696 0 0-0.032-0.096-0.032-0.096-0.32-0.736-0.768-1.472-1.312-2.208-0.48 0.704-0.992 1.76-1.152 3.136zM25.504 12.896c0 0-0.096 0.128-0.096 0.128 0.064 0.576 0.128 1.12 0.16 1.664 0.8-0.128 1.472-0.352 1.92-0.576 0.32-0.16 0.32-0.192 0.448-0.288-0.128-1.376-0.672-2.432-1.12-3.136-0.576 0.736-0.992 1.472-1.312 2.208zM8.992 25.888c0.64 0.544 2.72 2.112 7.008 2.112s6.368-1.568 7.008-2.112c0 0-0.512-1.984-0.512-1.984-1.376 0.768-3.584 1.696-6.496 1.696s-5.12-0.928-6.496-1.696c0 0-0.512 1.984-0.512 1.984z"></path>
</svg>
