<svg version="1.1" xmlns="http://www.w3.org/2000/svg" width="32" height="32" viewBox="0 0 32 32">
	<title>currency</title>
	<path d="M10.464 11.36l-0.16 0.032 1.856 0.384c1.504 0.32 3.104 0.48 4.768 0.48 0.864 0 1.728-0.032 2.528-0.128 1.408-0.128 2.72-0.352 3.872-0.672l0.128-0.032c3.616-1.024 5.888-2.816 5.888-4.48 0-2.368-4.608-4.8-12.288-4.8s-12.256 2.432-12.256 4.8c0 1.632 2.144 3.392 5.664 4.416zM15.168 9.024c-0.864-0.288-1.344-0.768-1.44-1.44l-0.064-0.384-0.352-0.064c-0.096-0.032-0.16-0.032-0.192-0.064l0.064-0.256c0.032-0.032 0.16-0.128 0.352-0.192l0.256-0.064 0.096-0.224c0.096-0.256 0.256-0.448 0.448-0.64 0.064-0.064 0.128-0.128 0.192-0.192 0.16-0.16 0.288-0.288 0.352-0.448 0.608 0.192 1.344 0.224 1.824 0.192 0.064 0 0.16 0 0.224 0 2.272 0 2.848 0.608 3.072 1.088l0.096 0.224 0.224 0.064c0.224 0.064 0.352 0.16 0.352 0.192l0.064 0.256c-0.032 0.032-0.064 0.032-0.16 0.064l-0.352 0.064-0.064 0.384c-0.096 0.672-0.608 1.152-1.472 1.44l-0.416 0.128 0.128 0.992c0.032 0.352 0.288 0.64 0.672 0.768l0.384 0.16c-0.128 0-0.256 0-0.384 0.032-0.64 0.032-1.312 0.064-2.016 0.064-0.928 0-1.792-0.032-2.592-0.128l0.352-0.128c0.352-0.128 0.608-0.416 0.672-0.768l0.096-0.992-0.416-0.128zM17.056 3.2c7.456 0 11.2 2.4 11.2 3.744 0 1.088-2.304 2.976-6.592 3.808l-2.208-0.832-0.032-0.064c1.088-0.448 1.536-1.152 1.728-1.792 0.224-0.096 0.448-0.256 0.544-0.48 0.16-0.224 0.192-0.48 0.096-0.768l-0.096-0.32c-0.096-0.352-0.416-0.64-0.864-0.832-0.768-1.312-2.592-1.472-3.904-1.472-0.096 0-0.192 0-0.256 0-0.608 0.032-1.152-0.032-1.536-0.192-0.224-0.064-0.288-0.128-0.32-0.16-0.224-0.16-0.512-0.128-0.704-0.032l-0.32 0.192v0.32c0 0.096 0 0.224 0.032 0.352 0 0 0 0.032 0 0.032s0 0-0.032 0.032c-0.064 0.032-0.128 0.128-0.224 0.224-0.224 0.192-0.416 0.448-0.544 0.736-0.416 0.16-0.736 0.448-0.832 0.8l-0.128 0.32c-0.064 0.288-0.032 0.544 0.096 0.768s0.32 0.384 0.576 0.48c0.192 0.64 0.64 1.344 1.696 1.792v0.064l-2.208 0.8c-4.128-0.864-6.368-2.72-6.368-3.776 0-1.344 3.744-3.744 11.2-3.744zM28.8 15.808v-0.128c1.696-1.184 2.656-2.656 2.656-4.256v-4.48c0-3.968-6.176-6.944-14.4-6.944s-14.4 2.976-14.4 6.944v1.184c-1.728 1.184-2.656 2.592-2.656 4.128v4.512c0 1.76 1.184 3.36 3.2 4.608v3.392c0 4.064 6.336 7.232 14.4 7.232s14.4-3.168 14.4-7.232v-4.512c0-1.696-1.12-3.232-3.2-4.448zM30.944 20.256c0 3.424-6.24 6.4-13.344 6.4-0.32 0-0.608 0-0.928 0-0.064 0-0.16 0-0.256-0.032-0.256 0-0.512 0-0.8-0.032-0.16-0.032-0.32-0.032-0.48-0.064-0.096 0-0.16 0-0.224 0-4.384-0.48-8.128-2.048-9.76-4.064-0.032-0.032-0.032-0.064-0.064-0.064-0.032-0.032-0.064-0.064-0.064-0.096 0.736 0.32 1.568 0.576 2.432 0.832 2.368 1.568 6.048 2.432 10.144 2.432 7.232 0 12.256-2.784 12.256-5.312 0-0.736-0.448-1.472-1.28-2.144 0-0.032 0-0.064 0.032-0.128 0-0.032 0.032-0.096 0.032-0.16 0.032-0.064 0.032-0.128 0.064-0.192 0-0.064 0.032-0.096 0.032-0.16s0.032-0.128 0.032-0.192c0-0.064 0-0.128 0.032-0.192 0 0 0-0.032 0-0.032 1.088 0.736 2.144 1.824 2.144 3.2zM19.808 27.648c0 0 0.032 0 0.032 0 0.32-0.032 0.608-0.064 0.928-0.096 0.064 0 0.16-0.032 0.224-0.032 0.288-0.032 0.576-0.064 0.864-0.128v3.2c-0.672 0.128-1.376 0.192-2.112 0.256v-3.2c0 0 0.032 0 0.064 0zM22.944 27.2c0.032 0 0.064 0 0.064-0.032 0.288-0.032 0.576-0.096 0.864-0.192 0.032 0 0.064 0 0.096-0.032 0.192-0.032 0.384-0.096 0.576-0.128v3.2c-0.512 0.128-1.056 0.256-1.6 0.384v-3.2zM25.6 26.464c0.032 0 0.064 0 0.096-0.032 0.032 0 0.064-0.032 0.096-0.032 0.224-0.096 0.448-0.16 0.672-0.256 0.064-0.032 0.096-0.032 0.16-0.064 0.032 0 0.032 0 0.032-0.032v3.2c-0.32 0.16-0.672 0.288-1.056 0.416v-3.2zM27.744 25.568c0.096-0.064 0.16-0.096 0.256-0.16 0.064 0 0.096-0.032 0.16-0.064 0.192-0.128 0.416-0.256 0.608-0.352 0-0.032 0.032-0.032 0.032-0.032v3.104c-0.32 0.224-0.672 0.448-1.056 0.672v-3.168zM6.4 24.96c0.32 0.192 0.704 0.416 1.056 0.608v3.168c-0.384-0.224-0.736-0.448-1.056-0.672v-3.104zM3.2 16.96c0.032 0 0.032 0 0.032 0.032 0.192 0.096 0.416 0.224 0.608 0.352 0.064 0.032 0.096 0.064 0.16 0.064 0.096 0.064 0.192 0.096 0.256 0.16v2.688h-0.768c-0.096-0.064-0.192-0.128-0.288-0.192v-3.104zM5.536 18.144c0.224 0.096 0.448 0.16 0.672 0.256 0.032 0 0.064 0.032 0.096 0.032 0.032 0.032 0.064 0.032 0.096 0.032v3.2c-0.384-0.128-0.736-0.288-1.056-0.416v-3.2c0 0.032 0 0.032 0.032 0.032 0.064 0.032 0.128 0.032 0.16 0.064zM8.128 18.976c0.288 0.064 0.576 0.128 0.864 0.192 0.032 0.032 0.032 0.032 0.064 0.032v3.2c-0.032 0-0.064-0.032-0.064-0.032-0.288-0.064-0.576-0.128-0.864-0.192-0.224-0.064-0.448-0.128-0.672-0.16v-3.2c0.192 0.032 0.384 0.096 0.576 0.128 0.032 0.032 0.064 0.032 0.096 0.032zM11.232 19.552c0.32 0.032 0.608 0.064 0.928 0.096 0 0 0.032 0 0.032 0 0.032 0 0.064 0 0.064 0v3.2c-0.352-0.032-0.736-0.064-1.088-0.096-0.16-0.032-0.352-0.064-0.512-0.096-0.16 0-0.352-0.032-0.512-0.064v-3.2c0.288 0.064 0.576 0.096 0.864 0.128 0.096 0 0.16 0.032 0.224 0.032zM14.4 19.744c0.352 0 0.704-0.032 1.056-0.032v3.2c0 0 0 0-0.032 0-0.32 0-0.672 0.032-1.024 0.032s-0.704-0.032-1.056-0.032v-3.2c0 0 0.032 0 0.064 0 0.32 0 0.672 0.032 0.992 0.032zM3.744 9.76c0 0 0 0 0.032 0.032 0.096 0.128 0.224 0.288 0.352 0.416 0.032 0.032 0.064 0.064 0.096 0.096 0.128 0.128 0.256 0.256 0.384 0.384 0.032 0 0.064 0.032 0.096 0.064s0.064 0.064 0.096 0.096v2.976c-0.672-0.736-1.056-1.536-1.056-2.4v-1.664zM5.856 11.616c0.032 0 0.032 0.032 0.064 0.032 0.192 0.128 0.384 0.256 0.576 0.352 0.064 0.032 0.128 0.064 0.16 0.096 0.096 0.032 0.192 0.096 0.288 0.128v3.168c-0.384-0.224-0.736-0.448-1.088-0.672v-3.104zM8 12.736c0 0 0.032 0 0.032 0 0.064 0.032 0.128 0.064 0.192 0.064 0.192 0.096 0.416 0.192 0.64 0.256 0.032 0.032 0.064 0.032 0.128 0.064 0.032 0 0.064 0 0.064 0.032v3.168c-0.352-0.128-0.704-0.256-1.056-0.416v-3.168zM10.144 13.472c0.16 0.064 0.352 0.096 0.544 0.16 0.032 0 0.064 0 0.096 0.032 0.288 0.064 0.576 0.128 0.864 0.192 0.032 0 0.064 0 0.096 0v3.2c-0.576-0.096-1.088-0.256-1.6-0.384v-3.2zM12.8 14.048c0.288 0.064 0.576 0.096 0.864 0.128 0.096 0.032 0.16 0.032 0.256 0.032 0.288 0.032 0.576 0.064 0.896 0.096 0.032 0 0.032 0 0.064 0 0 0 0.032 0 0.064 0v3.2c-0.736-0.032-1.44-0.128-2.144-0.256v-3.2zM17.056 14.4c0.352 0 0.672 0 0.992-0.032 0.032 0 0.064 0 0.096 0v3.2c-0.352 0-0.704 0.032-1.088 0.032-0.352 0-0.704 0-1.056-0.032v-3.2c0.032 0 0.064 0 0.064 0 0.352 0.032 0.672 0.032 0.992 0.032zM19.328 14.304c0.288-0.032 0.608-0.064 0.896-0.096 0.064 0 0.16 0 0.224-0.032 0.32-0.032 0.608-0.064 0.896-0.096v3.168c-0.224 0.032-0.416 0.064-0.608 0.096-0.096 0.032-0.224 0.032-0.32 0.064-0.416 0.032-0.8 0.064-1.216 0.096v-3.2c0.032 0 0.064 0 0.064 0 0.032 0 0.032 0 0.064 0zM23.328 13.664c0.032-0.032 0.096-0.032 0.128-0.032 0.192-0.064 0.352-0.096 0.544-0.16v3.2c-0.064 0-0.128 0.032-0.192 0.064 0 0 0 0 0 0-0.128 0.032-0.256 0.064-0.384 0.096-0.288 0.064-0.576 0.128-0.896 0.192-0.032 0.032-0.096 0.032-0.128 0.032v-3.2c0.032 0 0.064 0 0.096 0 0.288-0.064 0.576-0.128 0.832-0.192zM25.28 13.056c0.224-0.064 0.416-0.16 0.64-0.256 0.064 0 0.128-0.032 0.192-0.064 0 0 0 0 0.032 0v3.168c-0.352 0.16-0.704 0.288-1.088 0.416v-3.168c0.032-0.032 0.064-0.032 0.096-0.032 0.032-0.032 0.096-0.032 0.128-0.064zM27.616 12c0.224-0.128 0.416-0.224 0.608-0.352 0 0 0.032-0.032 0.032-0.032v3.104c-0.32 0.224-0.672 0.448-1.056 0.672v-3.168c0.096-0.032 0.192-0.096 0.256-0.128s0.128-0.064 0.16-0.096zM13.088 23.968c0 0 0.032 0 0.064 0 0 0 0.032 0 0.064 0s0.096 0 0.128 0c0.352 0.032 0.704 0.032 1.056 0.032 0.256 0 0.512 0 0.736 0 0.096 0 0.16-0.032 0.256-0.032 0.032 0 0.064 0 0.096 0s0.096 0 0.128 0 0.192 0 0.256 0c0.096 0 0.192-0.032 0.288-0.032 0.16 0 0.288 0 0.448-0.032 0.096 0 0.192 0 0.288 0 0.16-0.032 0.288-0.032 0.416-0.032 0.096-0.032 0.192-0.032 0.32-0.064 0.128 0 0.256 0 0.384-0.032 0.096 0 0.192-0.032 0.288-0.032 0.128-0.032 0.256-0.032 0.384-0.064 0.096 0 0.192-0.032 0.288-0.032 0.128-0.032 0.256-0.064 0.384-0.064 0.096-0.032 0.192-0.032 0.288-0.064 0.128-0.032 0.224-0.032 0.352-0.064 0.096-0.032 0.192-0.064 0.288-0.064 0.128-0.032 0.224-0.064 0.352-0.096 0.096 0 0.192-0.032 0.288-0.064s0.224-0.032 0.32-0.064c0.096-0.032 0.192-0.064 0.288-0.096s0.192-0.064 0.32-0.096c0.096-0.032 0.16-0.032 0.256-0.064 0.128-0.032 0.224-0.064 0.32-0.096s0.16-0.064 0.256-0.096c0.096-0.032 0.192-0.064 0.288-0.096s0.192-0.064 0.256-0.128c0.096-0.032 0.192-0.064 0.288-0.096s0.16-0.064 0.256-0.096c0.096-0.032 0.192-0.096 0.256-0.128 0.096-0.032 0.16-0.064 0.256-0.096 0.064-0.064 0.16-0.096 0.256-0.128 0.064-0.032 0.16-0.096 0.224-0.128 0.096-0.032 0.16-0.064 0.256-0.128 0.064-0.032 0.128-0.064 0.192-0.128 0.096-0.032 0.16-0.064 0.256-0.128 0.064-0.032 0.128-0.064 0.192-0.128 0.064-0.032 0.16-0.096 0.224-0.128s0.128-0.096 0.192-0.128c0.064-0.064 0.128-0.096 0.192-0.16 0.064-0.032 0.128-0.096 0.192-0.128 0.064-0.064 0.128-0.096 0.192-0.16 0.064-0.032 0.128-0.096 0.16-0.128 0.064-0.064 0.128-0.096 0.192-0.16 0.032-0.064 0.096-0.096 0.16-0.16 0.032-0.032 0.096-0.096 0.16-0.16 0.032-0.032 0.096-0.096 0.128-0.128 0.064-0.064 0.096-0.128 0.16-0.192 0.032-0.032 0.096-0.096 0.128-0.128 0.032-0.064 0.096-0.128 0.128-0.192 0.032-0.032 0.064-0.096 0.096-0.16 0.032-0.032 0.064-0.064 0.096-0.096 0.48 0.384 0.736 0.8 0.736 1.152 0 1.44-3.936 4.256-11.2 4.256-2.208 0-4-0.256-5.44-0.608 0.32 0.032 0.608 0.064 0.928 0.064zM22.4 21.664v-3.2c0.032-0.032 0.064-0.032 0.096-0.064 0.192-0.064 0.416-0.128 0.608-0.192 0.128-0.064 0.224-0.128 0.352-0.16v3.2c-0.32 0.128-0.672 0.288-1.056 0.416zM20.16 19.104c0.224-0.064 0.448-0.096 0.672-0.16 0.16-0.064 0.32-0.096 0.512-0.16v3.232c-0.512 0.128-1.056 0.256-1.6 0.384v-3.2c0.128-0.032 0.256-0.064 0.416-0.096zM24.544 20.736v-3.072c0.352-0.128 0.704-0.256 1.056-0.384v2.784c-0.32 0.224-0.672 0.448-1.056 0.672zM17.056 19.616c0.192-0.032 0.352-0.064 0.512-0.064 0.288-0.032 0.544-0.064 0.8-0.096 0.096-0.032 0.192-0.064 0.288-0.064v3.2c-0.032 0-0.064 0-0.128 0.032-0.16 0-0.32 0.032-0.48 0.064-0.128 0-0.256 0.032-0.384 0.032-0.256 0.064-0.544 0.064-0.832 0.096-0.096 0-0.192 0.032-0.288 0.032 0 0 0 0 0 0v-3.2c0.16-0.032 0.352-0.032 0.512-0.032zM27.744 16.768c0 0.416-0.096 0.8-0.256 1.184l-0.064 0.096c-0.16 0.352-0.384 0.672-0.64 0.96-0.032 0.032-0.064 0.064-0.096 0.128 0 0 0 0-0.032 0v-2.272c0.384-0.16 0.736-0.352 1.088-0.512v0.416zM8.544 26.048c0.32 0.16 0.704 0.288 1.056 0.416v3.2c-0.384-0.128-0.736-0.288-1.056-0.416v-3.2zM10.656 26.816c0.544 0.128 1.056 0.256 1.6 0.384v3.2c-0.544-0.128-1.088-0.256-1.6-0.384v-3.2zM13.344 27.392c0.064 0.032 0.16 0.032 0.256 0.032 0.128 0.032 0.256 0.064 0.384 0.064 0.192 0.032 0.384 0.064 0.608 0.064 0.192 0.032 0.384 0.064 0.608 0.064 0.096 0.032 0.16 0.032 0.256 0.032v3.2c-0.704-0.064-1.44-0.128-2.112-0.256v-3.2zM30.4 9.76v1.664c0 0.864-0.384 1.664-1.056 2.4v-2.976c0.032-0.032 0.064-0.064 0.096-0.096s0.064-0.064 0.096-0.064c0.128-0.128 0.256-0.256 0.352-0.384 0.032-0.032 0.064-0.064 0.096-0.096 0.16-0.128 0.256-0.288 0.384-0.416 0-0.032 0.032-0.032 0.032-0.032zM17.056 1.056c7.488 0 13.344 2.592 13.344 5.888 0 3.392-6.24 6.4-13.344 6.4s-13.312-3.008-13.312-6.4c0-3.296 5.856-5.888 13.312-5.888zM2.656 9.472v1.952c0 0.128 0.032 0.256 0.032 0.384 0 0.032 0 0.064 0 0.128 0.032 0.064 0.032 0.16 0.064 0.224 0 0.064 0 0.096 0.032 0.16 0 0.064 0.032 0.128 0.032 0.192 0.032 0.064 0.032 0.096 0.064 0.16 0 0.064 0.032 0.128 0.064 0.192s0.032 0.096 0.064 0.16c0.032 0.064 0.064 0.128 0.096 0.192 0 0.064 0.032 0.096 0.064 0.16s0.064 0.128 0.096 0.192c0.032 0.032 0.064 0.096 0.096 0.128 0.032 0.064 0.096 0.128 0.128 0.192 0.032 0.032 0.064 0.096 0.096 0.16 0.064 0.032 0.096 0.096 0.128 0.16 0.064 0.032 0.096 0.096 0.128 0.128 0.064 0.064 0.096 0.128 0.16 0.192 0.032 0.032 0.096 0.096 0.128 0.128 0.064 0.064 0.096 0.128 0.16 0.16 0.064 0.064 0.096 0.096 0.16 0.16 0.064 0.032 0.128 0.096 0.16 0.16 0.064 0.032 0.128 0.064 0.16 0.128 0.064 0.032 0.128 0.096 0.224 0.16 0.032 0.032 0.096 0.064 0.16 0.128 0.064 0.032 0.128 0.096 0.192 0.128 0.064 0.064 0.128 0.096 0.192 0.128 0.064 0.064 0.16 0.096 0.224 0.16 0.064 0.032 0.128 0.064 0.192 0.096 0.096 0.064 0.16 0.128 0.256 0.16 0.064 0.032 0.128 0.064 0.192 0.096 0.096 0.064 0.224 0.128 0.32 0.192 0.032 0.032 0.096 0.032 0.128 0.064 0.16 0.064 0.32 0.16 0.48 0.224 0.064 0.032 0.128 0.064 0.16 0.064 0.128 0.064 0.224 0.096 0.352 0.16 0.064 0.032 0.128 0.064 0.192 0.096 0.128 0.032 0.224 0.064 0.32 0.096s0.16 0.064 0.256 0.096c0.096 0.032 0.192 0.064 0.288 0.128 0.096 0 0.16 0.032 0.256 0.064s0.224 0.064 0.32 0.096c0.096 0.032 0.16 0.064 0.256 0.096s0.224 0.064 0.32 0.096c0.096 0 0.192 0.032 0.288 0.064s0.224 0.064 0.32 0.064c0.096 0.032 0.192 0.064 0.288 0.064 0.096 0.032 0.224 0.064 0.32 0.096s0.192 0.032 0.288 0.064c0.128 0 0.256 0.032 0.352 0.064 0.096 0 0.192 0.032 0.288 0.064 0.128 0 0.256 0.032 0.384 0.032 0.096 0.032 0.192 0.032 0.288 0.064 0.128 0 0.256 0.032 0.384 0.032 0.096 0.032 0.192 0.032 0.288 0.064 0.128 0 0.256 0.032 0.384 0.032 0.096 0 0.192 0.032 0.288 0.032 0.16 0 0.288 0.032 0.416 0.032 0.096 0 0.192 0.032 0.288 0.032 0.16 0 0.288 0 0.416 0.032 0.096 0 0.192 0 0.288 0 0.032 0 0.064 0 0.064 0-0.416 0.032-0.832 0.032-1.28 0.032-7.104 0-13.344-2.976-13.344-6.4 0-1.152 0.768-2.112 1.6-2.784zM1.056 16.768v-1.696c0.032 0.032 0.032 0.032 0.032 0.032 0.128 0.16 0.256 0.32 0.384 0.448 0.032 0.032 0.064 0.064 0.096 0.096 0.128 0.128 0.256 0.256 0.384 0.352 0.032 0.032 0.064 0.064 0.096 0.096s0.064 0.064 0.096 0.064v2.976c-0.704-0.736-1.088-1.536-1.088-2.368zM4.256 24.768v-1.696c0.32 0.384 0.672 0.736 1.088 1.088v2.976c-0.704-0.736-1.088-1.536-1.088-2.368zM16.544 30.912v-3.2c0.032 0 0.032 0 0.064 0 0.32 0 0.672 0.032 0.992 0.032 0.352 0 0.672-0.032 0.992-0.032 0.032 0 0.064 0 0.064 0v3.2c-0.352 0-0.704 0.032-1.056 0.032s-0.704-0.032-1.056-0.032zM30.944 23.072v1.696c0 0.832-0.384 1.632-1.088 2.368v-2.976c0.032 0 0.064-0.032 0.096-0.064s0.064-0.064 0.096-0.096c0.128-0.096 0.256-0.224 0.384-0.352 0.032-0.032 0.064-0.064 0.096-0.096 0.128-0.128 0.256-0.288 0.384-0.448 0 0 0 0 0.032-0.032z"></path>
</svg>
