<svg height="32" version="1.1" viewBox="0 0 32 32" width="32" xmlns="http://www.w3.org/2000/svg">
	<title>d10</title>
	<path d="M31.136 14.304l-15.328-14.080-15.328 14.080-0.288 5.504 15.584 11.968 0.032-0.032 0.032 0.032 15.552-11.968-0.256-5.504zM29.76 14.976l0.192 3.584-4.256-1.376-7.392-12.928 11.456 10.72zM15.808 22.144l-8.416-4.672 8.416-14.72 8.416 14.72-8.416 4.672zM1.856 14.976l11.456-10.752-7.392 12.96-4.256 1.376 0.192-3.584zM2.56 19.808l3.744-1.28 8.768 4.832 0.032 6.144-12.544-9.696zM16.512 29.504l0.032-6.144 8.768-4.832 3.744 1.28-12.544 9.696z" />
</svg>
