<svg height="32" version="1.1" viewBox="0 0 32 32" width="32" xmlns="http://www.w3.org/2000/svg">
	<title>edit</title>
	<path d="M30.912 5.728q0.768 0.736 0.768 1.76t-0.768 1.76l-5.92 5.92v15.008q0 0.672-0.48 1.152t-1.184 0.512h-21.632q-0.704 0-1.184-0.512t-0.512-1.152v-21.664q0-0.672 0.512-1.184t1.184-0.48h14.976l5.92-5.92q0.768-0.768 1.76-0.768t1.76 0.768zM14.176 21.28l10.464-10.496-3.584-3.584-10.496 10.464zM9.888 19.072l0.128 2.752 2.816 0.128zM21.696 28.512v-9.984l-5.344 5.12q-0.64 0.64-2.016 1.056t-2.56 0.448h-5.088v-5.088q0-1.312 0.352-2.624t0.992-1.952l5.28-5.344h-9.984v18.368h18.368zM25.856 9.632l2.144-2.144-3.648-3.648-2.144 2.144z" />
</svg>
