<svg version="1.1" xmlns="http://www.w3.org/2000/svg" width="31" height="32" viewBox="0 0 31 32">
  <title>favorite-off</title>
  <path d="M23.712 30.976q-0.608 0-1.248-0.384l-6.816-3.872-6.88 3.872q-1.408 0.768-2.688-0.096-1.312-0.928-0.992-2.528l1.6-7.776q-0.32-0.288-1.248-1.12t-1.44-1.28l-3.168-2.88q-1.184-1.12-0.672-2.624t2.112-1.728l7.808-0.832 3.264-7.2q0.704-1.504 2.304-1.504 1.504 0 2.272 1.504l3.232 7.2 7.84 0.864q1.536 0.128 2.080 1.664t-0.672 2.656l-5.856 5.312 1.6 7.744q0.224 1.12-0.512 2.048t-1.92 0.96zM10.112 20q-0.032 0.128-0.224 1.152t-0.544 2.688-0.64 2.944l6.080-3.424q0.864-0.448 1.664 0l6.080 3.424-1.408-6.816q-0.192-0.928 0.512-1.568l5.152-4.736-6.944-0.736q-0.96-0.128-1.312-0.96l-2.88-6.368-2.88 6.368q-0.416 0.832-1.376 0.96l-6.912 0.736 5.152 4.736q0.672 0.608 0.48 1.6z"></path>
</svg>
