<svg version="1.1" xmlns="http://www.w3.org/2000/svg" width="28" height="32" viewBox="0 0 28 32">
  <title>favorite-on</title>
  <path d="M9.504 11.264q2.208-4.864 3.648-8.064 0.192-0.48 0.768-0.48t0.736 0.48l3.648 8.064q5.248 0.576 8.768 0.96 0.48 0.096 0.672 0.576t-0.192 0.864l-6.528 5.984q1.056 5.152 1.76 8.64 0.096 0.48-0.32 0.8t-0.864 0.064l-7.68-4.352q-4.608 2.592-7.68 4.352-0.48 0.288-0.896-0.064t-0.352-0.8l1.792-8.64q-3.904-3.584-6.528-5.984-0.384-0.352-0.192-0.832t0.672-0.608z"></path>
</svg>
