<svg version="1.1" xmlns="http://www.w3.org/2000/svg" xmlns:xlink="http://www.w3.org/1999/xlink" x="0px" y="0px" width="600px" height="600px" viewBox="0 0 600 600">
	<path d="
    M474.835,206.531c-4.146-6.428-27.363-18.243-35.655-28.192c-8.291-9.951,4.146-63.847,0-87.066
    c-4.146-23.216-4.489-63.091-11.609-75.455c-7.875-13.681-22.111-25.15-55,0.275c-4.729,3.658-17.967,5.529-34.549,0.555
    c-16.585-4.975-37.313-16.748-50.303-9.396c-18.255,10.333-16.862,31.784-21.008,35.93c-4.146,4.147-24.874,22.387-36.483,24.046
    c-11.61,1.659-37.037-8.013-45.329,5.529c-11.53,18.829-8.035,37.876-14.925,43.117c-6.911,5.254-8.292,7.463-27.64,11.057
    c-20.052,3.721-28.133,23.727-21.559,48.919c6.634,25.427-0.552,40.91,6.634,63.572c7.186,22.662,16.031,4.975,22.11,33.168
    c6.08,28.191,43.671,59.148,43.671,59.148l2.763,18.241l-15.342,23.468l15.342,45.078l-17.688,152.569
    c75.731,39.8,179.655,34.271,248.477-8.847c-1.658-4.145-29.021-200.663-29.021-200.663l7.462-28.189l-2.486-10.779
    c0,0,57.006-35.448,62.188-41.458c5.182-6.013,14.718-23.633,15.754-29.023C481.675,246.746,478.98,212.955,474.835,206.531
    M275.555,50.369c-0.137-5.943,6.866-20.522,8.828-28.4c1.958-7.877,15.081-10.296,26.275-6.564
    c11.194,3.731,23.683,10.503,35.655,11.609c13.475,1.243,34.509-1.424,42.011-8.293c8.154-7.461,14.995-9.534,25.358-2.073
    c10.365,7.464,12.646,55.139,12.231,66.75c-0.414,11.608-9.536,43.114-12.022,55.139c-1.853,8.963-7.159,11.941-9.572,18.025
    c-0.121-0.406-0.577-0.702-0.972-0.339c-4.242,3.915-10.104,4.299-15.132,6.695c-1.486-5.044-19.892-1.463-22.002-1.989
    c-2.21-0.551-14.925-14.374-14.925-14.374l0.551-74.627c0,0,9.397-16.03,9.397-21.005c0-4.974-4.421-8.844-4.421-8.844
    l-10.049,14.418l-5.862,1.607c0,0,3.155,3.836,3.084,6.644c-0.461,17.728-2.176,82.739-2.652,85.122
    c-0.551,2.763,2.212,14.925-23.217,19.9c-25.426,4.975-25.289-13.406-25.289-13.406s-7.877-63.98-7.877-67.3
    c0-3.316-9.398,0-9.398,0V50.369z M402.955,167.391c-4.812,1.389-9.595,2.717-14.593,3.036c-0.025-1.061-0.036-1.44-0.047-2.36
    c5.272-0.385,8.467-1.508,12.955-4.493c0.034-0.023,1.819,0.01,1.84,0.668C403.155,165.59,402.977,166.196,402.955,167.391
    M402.613,160.949c-4.227,2.813-9.328,4.42-14.315,4.793c-0.001-0.671,0.45-0.792,0.464-1.338
    c5.19-2.617,10.034-1.151,14.477-5.191C402.807,160.476,402.97,160.711,402.613,160.949 M388.408,172.311
    c4.975-0.316,9.896-1.585,14.69-2.926c-0.033,0.917-0.038,1.115-0.096,1.957c-2.303,0.901-4.712,2.311-7.134,2.852
    c-2.511,0.564-5.025-0.025-7.38,0.919C388.443,173.604,388.443,173.687,388.408,172.311 M402.08,183.078
    c-1.475,0.351-3.037,1.419-4.558,1.645c-2.922,0.436-5.803,1.095-8.725,1.479c-0.028-1.279-0.061-2.571-0.097-3.872
    c4.528-0.739,9.121-1.157,13.549-2.229C402.138,181.605,402.038,181.569,402.08,183.078 M402.69,189.732
    c-4.658,1.035-9.083,1.552-13.799,2.373c0.003-1.919-0.008-1.749-0.052-3.934c2.959-0.417,5.986-1.048,8.945-1.437
    c1.486-0.195,2.949-0.485,4.401-0.823C402.875,187.116,403.441,187.887,402.69,189.732 M388.854,197.788
    c-0.135-1.141,0.018-1.009,0.035-2.752c4.828-0.844,9.657-1.651,14.426-2.711c0.186,0.607,0.387,1.136,0.604,1.602
    c-1.395,0.766-2.744,1.632-4.103,2.555C396.125,197.52,392.533,196.702,388.854,197.788 M395.683,198.966
    c-2.317,1.221-4.716,2.2-7.237,2.979c0.059-0.283,0.113-0.604,0.158-0.978C390.952,200.263,393.316,199.614,395.683,198.966
    M402.423,177.75c-4.468,1.135-9.21,1.333-13.795,2.07c-0.034-1.202-0.036-1.188-0.07-2.362c2.985-1.305,6.338-1.087,9.49-1.902
    c1.652-0.427,2.869-0.334,4.461-0.933C402.354,176.496,402.57,176.096,402.423,177.75 M197.06,245.5
    c-5.418-4.063-2.292,1.656-14.925-16.578c0,0-43.117-42.566-50.304-55.834c-7.187-13.268-3.318-23.767,4.422-30.402
    c7.738-6.633,28.192-8.848,29.85-9.399c1.659-0.55,13.336-14.367,17.172-20.452c3.835-6.081,3.833-29.849,9.362-35.377
    c5.529-5.53,29.254,2.628,37.591,0c15.069-4.753,32.229-21.733,38.862-21.733s-5.142,7.363-5.697,18.417
    c-0.55,11.054-0.55,35.929,2.767,46.432c3.315,10.504,20.452,41.476,18.794,50.037c-1.658,8.561-23.872,27.317-29.851,22.933
    c-8.292-6.084-18.794,0.553-22.111-2.764c-3.317-3.316-2.213-21.005-4.423-29.85c-2.211-8.844-11.057-38.147-16.583-47.542
    c-5.527-9.396-10.502-16.028-9.951,10.503c0.553,26.534-7.738,14.375-11.607,8.847c-3.869-5.528-21.575,3.349-15.478,6.634
    l14.372,7.739l49.197,71.864c0,0,4.698,6.904-1.657,11.05c-3.527,2.301-13.819,9.399-16.583,13.269
    C217.512,247.163,201.482,248.818,197.06,245.5 M403.94,520.375l-23.632,17.413c0,0-21.145-33.166-21.145-34.41
    c0-1.246,4.976-25.705,4.562-29.438c-0.415-3.73-14.374-60.667-14.374-60.667l-6.355,19.209c0,0,4.56,43.117,3.73,46.019
    c-0.829,2.902-5.391,89.137-5.391,89.137s-83.745,11.195-121.889-3.73c-6.031-2.361-5.805-9.949-5.805-9.949l13.268-131.84
    l29.85-5.806l0.831,137.646c0,0,16.308,9.119,16.308,8.29c0-0.828-0.555-170.811-0.555-170.811l20.73-5.804l-14.096-10.78h38.971
    l-32.338-10.782l75.454-6.631c0,0,14.72-15.235,16.584-14.096c1.866,1.142,0,81.26,0,81.26s9.095,1.477,9.095-3.498
    c0-4.554-2.386-65.088-3.152-72.096c0.184-2.684,4.485-2.791,6.495-1.106L403.94,520.375z M470.552,254.208
    c-2.37,4.267-10.363,10.161-22.666,16.168c-11.779,5.753-16.997,8.292-14.925,2.902c2.072-5.388,3.317-38.141,0-46.021
    c-3.317-7.875-5.391-9.949-5.391,2.075c0,12.023,0.209,39.593-3.108,44.569c-3.315,4.974-9.743,2.692-20.108,4.351
    c-10.363,1.66-27.362-1.245-40.628,0c-13.269,1.243-41.046,3.542-45.606,0.528c-4.56-3.017,0.14-4.949,3.042-4.949
    s47.878-0.113,52.471-1.799c7.921-2.901,6.261-26.118,4.604-33.995c-1.658-7.877-10.365-17.206-15.753-17.206
    c-5.391,0-20.317,0.206-26.12,0.206c-5.805,0-2.902,2.074-3.317,3.731c-0.414,1.659,11.143-0.653,21.145-0.414
    c9.676,0.232,12.852,0.414,16.998,10.78c4.146,10.363,4.891,26.119,2.444,29.435c-2.444,3.318-50.952,5.804-58.829,4.147
    c-7.877-1.661-7.877-36.485-0.829-42.705c7.048-6.218,15.755-14.51,30.681-16.584c13.573-1.885,37.085-3.083,42.48-5.78
    c3.666-0.985,7.165-2.297,10.495-4.201c1.026-0.585,2.005-1.215,2.974-1.848c1.644-0.466,3.282-0.942,4.911-1.455
    c2.857,2.317,6.821-1.017,9.619-0.395c3.731,0.83,1.657-15.34,1.657-21.559c0-6.218,4.147-14.627,5.805-18.507
    c1.66-3.88,4.672,12.758,6.91,19.891c3.732,11.882,16.999,20.589,27.364,26.807c10.364,6.218,13.819,14.098,13.819,24.46
    C470.689,234.894,472.921,249.94,470.552,254.208
  " />
</svg>
