<svg version="1.1" xmlns="http://www.w3.org/2000/svg" width="27" height="32" viewBox="0 0 27 32">
	<title>info</title>
	<path d="M18.272 24.576v-2.848q0-0.256-0.16-0.416t-0.384-0.16h-1.728v-9.152q0-0.256-0.16-0.416t-0.416-0.16h-5.696q-0.256 0-0.416 0.16t-0.16 0.416v2.848q0 0.256 0.16 0.416t0.416 0.16h1.696v5.728h-1.696q-0.256 0-0.416 0.16t-0.16 0.416v2.848q0 0.256 0.16 0.416t0.416 0.16h8q0.224 0 0.384-0.16t0.16-0.416zM16 8.576v-2.848q0-0.256-0.16-0.416t-0.416-0.16h-3.424q-0.256 0-0.416 0.16t-0.16 0.416v2.848q0 0.256 0.16 0.416t0.416 0.16h3.424q0.256 0 0.416-0.16t0.16-0.416zM27.424 16q0 3.744-1.824 6.88t-4.992 4.992-6.88 1.856-6.912-1.856-4.96-4.992-1.856-6.88 1.856-6.88 4.96-4.992 6.912-1.856 6.88 1.856 4.992 4.992 1.824 6.88z"></path>
</svg>
