<svg version="1.1" xmlns="http://www.w3.org/2000/svg" width="30" height="32" viewBox="0 0 30 32">
	<title>magic</title>
	<path d="M21.248 10.368l5.248-5.216-1.92-1.92-5.248 5.216zM29.248 5.152q0 0.48-0.32 0.8l-22.976 22.976q-0.32 0.32-0.8 0.32t-0.8-0.32l-3.552-3.552q-0.32-0.32-0.32-0.8t0.32-0.8l22.976-22.976q0.32-0.32 0.8-0.32t0.8 0.32l3.552 3.552q0.32 0.32 0.32 0.8zM5.12 1.76l1.728 0.512-1.728 0.544-0.544 1.76-0.544-1.76-1.76-0.544 1.76-0.512 0.544-1.76zM11.36 4.64l3.488 1.088-3.488 1.056-1.088 3.488-1.056-3.488-3.488-1.056 3.488-1.088 1.056-3.488zM27.968 13.184l1.76 0.544-1.76 0.512-0.544 1.76-0.544-1.76-1.728-0.512 1.728-0.544 0.544-1.76zM16.544 1.76l1.728 0.512-1.728 0.544-0.544 1.76-0.544-1.76-1.728-0.544 1.728-0.512 0.544-1.76z"></path>
</svg>
