<svg version="1.1" xmlns="http://www.w3.org/2000/svg" width="30" height="30" viewBox="5 3 25 23">
	<title>Public</title>
	<path d="M15.39 11.87C15.39 12.05 15.39 12.94 15.39 14.56C10.26 14.56 7.4 14.56 6.83 14.56C5.82 14.56 5 15.38 5 16.39C5 17.12 5 22.99 5 23.72C5 24.73 5.82 25.55 6.83 25.55C8.18 25.55 18.93 25.55 20.28 25.55C21.29 25.55 22.11 24.73 22.11 23.72C22.11 22.99 22.11 17.12 22.11 16.39C22.11 15.38 21.29 14.56 20.28 14.56C20.16 14.56 19.54 14.56 18.44 14.56C18.44 12.93 18.44 12.02 18.44 11.84C18.44 10.33 19.66 9.07 21.17 9.06C22.7 9.04 23.94 10.28 23.94 11.81C23.94 12.11 23.94 14.56 23.94 14.86C23.94 15.37 24.35 15.78 24.86 15.78C24.98 15.78 25.96 15.78 26.08 15.78C26.59 15.78 27 15.37 27 14.86C27 14.56 27 12.11 27 11.81C27 8.6 24.38 5.99 21.18 6C17.97 6.02 15.39 8.66 15.39 11.87Z" id="b90YTQhGbf" />
</svg>
