<svg version="1.1" xmlns="http://www.w3.org/2000/svg" width="27" height="32" viewBox="0 0 27 32">
  <title>redo</title>
  <path d="M27.424 4.576v8q0 0.448-0.32 0.8t-0.832 0.352h-8q-0.736 0-1.024-0.736-0.32-0.704 0.224-1.216l2.464-2.464q-2.624-2.464-6.208-2.464-1.856 0-3.552 0.736t-2.912 1.952-1.952 2.912-0.736 3.552 0.736 3.552 1.952 2.912 2.912 1.952 3.552 0.736q2.112 0 4-0.928t3.2-2.624q0.128-0.192 0.416-0.224 0.256 0 0.448 0.16l2.432 2.464q0.16 0.128 0.192 0.352t-0.16 0.416q-1.92 2.368-4.704 3.648t-5.824 1.312q-2.784 0-5.344-1.088t-4.352-2.944-2.944-4.384-1.088-5.312 1.088-5.312 2.944-4.384 4.352-2.944 5.344-1.088q2.624 0 5.056 0.992t4.384 2.816l2.304-2.304q0.544-0.576 1.248-0.256 0.704 0.288 0.704 1.056z"></path>
</svg>
