<svg height="32" version="1.1" viewBox="0 0 25 32" width="25" xmlns="http://www.w3.org/2000/svg">
	<title>remove</title>
	<path d="M23.168 23.616q0 0.704-0.48 1.216l-2.432 2.432q-0.512 0.48-1.216 0.48t-1.216-0.48l-5.248-5.28-5.248 5.28q-0.512 0.48-1.216 0.48t-1.216-0.48l-2.432-2.432q-0.512-0.512-0.512-1.216t0.512-1.216l5.248-5.248-5.248-5.248q-0.512-0.512-0.512-1.216t0.512-1.216l2.432-2.432q0.512-0.512 1.216-0.512t1.216 0.512l5.248 5.248 5.248-5.248q0.512-0.512 1.216-0.512t1.216 0.512l2.432 2.432q0.48 0.48 0.48 1.216t-0.48 1.216l-5.248 5.248 5.248 5.248q0.48 0.48 0.48 1.216z" />
</svg>
