<svg height="32" version="1.1" viewBox="0 0 28 32" width="28" xmlns="http://www.w3.org/2000/svg">
	<title>search</title>
	<path d="M16.352 1.984q4.864 0 8.256 3.424t3.392 8.224-3.392 8.256-8.256 3.424q-1.696 0-3.616-0.608l-3.904 3.904q-1.6 1.408-3.616 1.408-2.176 0-3.68-1.568t-1.536-3.68 1.472-3.648q1.696-1.728 2.528-2.56l1.28-1.28q-0.608-1.92-0.608-3.648 0-4.832 3.424-8.224t8.256-3.424zM16.352 21.984q3.456 0 5.888-2.432t2.432-5.92-2.432-5.888-5.888-2.432-5.888 2.432-2.464 5.888 2.464 5.92 5.888 2.432zM16.352 7.008q2.784 0 4.704 1.92t1.952 4.704-1.952 4.736-4.704 1.952-4.704-1.952-1.952-4.736 1.952-4.704 4.704-1.92zM16.352 18.624q2.080 0 3.552-1.44t1.472-3.552-1.472-3.52-3.552-1.472-3.52 1.472-1.472 3.52 1.472 3.552 3.52 1.44z" />
</svg>
