<svg version="1.1" xmlns="http://www.w3.org/2000/svg" width="26.25" height="30" viewBox="4 4 25 28">
	<title>Secret</title>
	<path d="M17.03 5.16L17.75 5.36L18.44 5.64L19.09 5.97L19.7 6.38L20.27 6.84L20.79 7.35L21.25 7.92L21.65 8.53L21.99 9.19L22.26 9.88L22.46 10.6L22.58 11.35L22.63 12.13L22.63 15.5L23.75 15.5L24 15.51L24.23 15.55L24.46 15.61L24.68 15.7L24.89 15.81L25.08 15.93L25.26 16.08L25.42 16.24L25.57 16.42L25.69 16.61L25.8 16.82L25.89 17.04L25.95 17.27L25.99 17.5L26 17.75L26 26.75L25.99 27L25.95 27.23L25.89 27.46L25.8 27.68L25.69 27.89L25.57 28.08L25.42 28.26L25.26 28.42L25.08 28.57L24.89 28.69L24.68 28.8L24.46 28.89L24.23 28.95L24 28.99L23.75 29L7.25 29L7 28.99L6.77 28.95L6.54 28.89L6.32 28.8L6.11 28.69L5.92 28.57L5.74 28.42L5.58 28.26L5.43 28.08L5.31 27.89L5.2 27.68L5.11 27.46L5.05 27.23L5.01 27L5 26.75L5 17.75L5.01 17.5L5.05 17.27L5.11 17.04L5.2 16.82L5.31 16.61L5.43 16.42L5.58 16.24L5.74 16.08L5.92 15.93L6.11 15.81L6.32 15.7L6.54 15.61L6.77 15.55L7 15.51L7.25 15.5L8.38 15.5L8.38 12.13L8.42 11.35L8.54 10.6L8.74 9.88L9.01 9.19L9.35 8.53L9.75 7.92L10.21 7.35L10.73 6.84L11.3 6.38L11.91 5.97L12.56 5.64L13.25 5.36L13.97 5.16L14.72 5.04L15.5 5L16.28 5.04L17.03 5.16ZM13.11 9.74L12.39 10.81L12.13 12.13L12.13 15.5L18.88 15.5L18.88 12.13L18.61 10.81L17.89 9.74L16.81 9.02L15.5 8.75L14.19 9.02L13.11 9.74Z" id="b7agiUAQvt" />
</svg>
