<svg version="1.1" xmlns="http://www.w3.org/2000/svg" width="26" height="32" viewBox="0 0 26 32">
	<title>sheet</title>
	<path d="M22.4 1.6q1.344 0 2.272 0.928t0.928 2.272v22.4q0 1.28-0.928 2.24t-2.272 0.96h-19.2q-1.28 0-2.24-0.96t-0.96-2.24v-22.4q0-1.344 0.96-2.272t2.24-0.928h19.2zM22.4 27.2v-22.4h-19.2v22.4h19.2zM14.4 19.2v1.6h-8v-1.6h8zM19.2 12.8v1.6h-6.4v-1.6h6.4zM12.8 11.2v-3.2h6.4v3.2h-6.4zM11.2 8v6.4h-4.8v-6.4h4.8zM9.6 16v1.6h-3.2v-1.6h3.2zM11.2 17.6v-1.6h8v1.6h-8zM19.2 22.4v1.6h-12.8v-1.6h12.8zM16 20.8v-1.6h3.2v1.6h-3.2z"></path>
</svg>
