<svg version="1.1" xmlns="http://www.w3.org/2000/svg" xmlns:xlink="http://www.w3.org/1999/xlink" viewBox="0 0 1000 1000" xml:space="preserve">
  <title>Template</title>
  <path d="M990,804.4c0,0-96.8,19.4-195.1,39.7C729.5,917,664.3,989.7,664.3,989.7L523.9,750.2c-8,0.5-15.8,1.2-23.9,1.2c-8.1,0-16-0.7-23.9-1.2L335.7,989.7c0,0-65.2-72.7-130.7-145.6C106.8,823.9,10,804.4,10,804.4l152.7-260.5c-24.6-49.3-38.8-104.5-38.8-163.1c0-204.6,168.4-370.6,376.1-370.6c207.7,0,376.1,165.9,376.1,370.6c0,58.6-14.2,113.8-38.8,163.1L990,804.4z M671.5,878.6c0,0,47-44.6,91.2-87.5c62.6-17.8,125.9-36,125.9-36L800,603.7c-51.2,66.8-124.6,115.8-209.5,136.5L671.5,878.6z M111.3,755.1c0,0,63.3,18.1,125.9,36c44.2,42.9,91.2,87.5,91.2,87.5l81.1-138.5c-84.9-20.7-158.4-69.7-209.5-136.5L111.3,755.1z M500,71.1c-168.9,0-305.8,137.2-305.8,306.4c0,169.2,136.9,306.4,305.8,306.4c168.9,0,305.8-137.2,305.8-306.4C805.8,208.3,668.9,71.1,500,71.1z M500,591.8c-118.3,0-214.3-95.9-214.3-214.3c0-118.3,95.9-214.3,214.3-214.3c118.3,0,214.3,95.9,214.3,214.3C714.3,495.9,618.3,591.8,500,591.8z M500,224.5c-84.5,0-153,68.5-153,153c0,84.5,68.5,153,153,153c84.5,0,153-68.5,153-153C653,293.1,584.5,224.5,500,224.5z"/>
</svg>
