<svg version="1.1" xmlns="http://www.w3.org/2000/svg" width="27" height="32" viewBox="0 0 27 32">
	<title>undo</title>
	<path d="M27.424 16q0 2.784-1.088 5.312t-2.912 4.384-4.384 2.944-5.312 1.088q-3.072 0-5.856-1.312t-4.704-3.648q-0.128-0.192-0.128-0.416t0.16-0.352l2.432-2.464q0.192-0.16 0.448-0.16 0.288 0.032 0.416 0.224 1.312 1.696 3.2 2.624t4.032 0.928q1.856 0 3.52-0.736t2.944-1.952 1.952-2.912 0.704-3.552-0.704-3.552-1.952-2.912-2.944-1.952-3.52-0.736q-1.76 0-3.36 0.64t-2.88 1.824l2.464 2.464q0.544 0.512 0.256 1.216-0.32 0.736-1.056 0.736h-8q-0.48 0-0.8-0.352t-0.352-0.8v-8q0-0.768 0.704-1.056 0.704-0.32 1.248 0.256l2.304 2.304q1.92-1.824 4.384-2.816t5.088-0.992q2.784 0 5.312 1.088t4.384 2.944 2.912 4.384 1.088 5.312z"></path>
</svg>
