<svg height="32" version="1.1" viewBox="0 0 32 32" width="32" xmlns="http://www.w3.org/2000/svg">
	<title>weapon</title>
	<path d="M31.2 26.912l-3.584-3.552 1.76-1.76c0.256-0.256 0.256-0.704 0-0.992-0.288-0.256-0.736-0.256-1.024 0l-0.672 0.672-2.976-3.008c0.448-1.632 0.672-3.36 0.672-5.088v-10.88c0-0.32-0.224-0.608-0.544-0.704-8.064-1.568-16.224-1.568-24.256 0-0.32 0.096-0.576 0.384-0.576 0.704v10.88c0 3.904 1.184 7.648 3.424 10.848s5.376 5.6 9.024 6.912c0.096 0.032 0.16 0.064 0.256 0.064 0.064 0 0.16-0.032 0.224-0.064 2.88-1.024 5.44-2.752 7.488-4.992l1.312 1.312-0.672 0.672c-0.288 0.288-0.288 0.736 0 0.992 0.128 0.16 0.32 0.224 0.48 0.224 0.192 0 0.384-0.064 0.512-0.224l1.728-1.728 3.584 3.584c0.512 0.512 1.184 0.8 1.92 0.8s1.408-0.288 1.92-0.8c0.512-0.512 0.8-1.216 0.8-1.92 0-0.736-0.288-1.408-0.8-1.952zM25.472 23.488l-0.256 0.288-13.696-13.664 3.232 0.224 11.936 11.936-1.216 1.216zM21.504 13.184c0 0.608-0.032 1.216-0.128 1.792l-5.824-5.824c-0.096-0.096-0.256-0.192-0.416-0.192l-5.408-0.416c-0.192-0.032-0.416 0.064-0.544 0.192-0.16 0.16-0.224 0.352-0.224 0.576l0.416 5.376c0.032 0.16 0.096 0.32 0.224 0.448l8.064 8.064c-1.376 1.568-3.072 2.784-4.96 3.648-2.432-1.088-4.544-2.848-6.080-5.056-1.792-2.528-2.72-5.504-2.72-8.608v-7.808c5.824-1.12 11.744-1.12 17.6 0v7.808zM12.704 29.536c-3.296-1.248-6.112-3.424-8.128-6.304-2.048-2.976-3.168-6.432-3.168-10.048v-10.304c7.488-1.376 15.072-1.376 22.56 0v10.304c0 1.344-0.16 2.656-0.448 3.936l-0.896-0.896c0.192-0.992 0.288-2.016 0.288-3.040v-8.384c0-0.352-0.224-0.64-0.576-0.704-6.4-1.312-12.896-1.312-19.296 0-0.32 0.064-0.576 0.352-0.576 0.704v8.384c0 3.392 1.056 6.656 2.976 9.44 1.76 2.496 4.192 4.448 6.976 5.664 0.096 0.032 0.192 0.032 0.288 0.032s0.192 0 0.256-0.032c2.208-0.96 4.128-2.336 5.696-4.096l0.768 0.768c-1.856 2.016-4.16 3.584-6.72 4.576zM10.784 14.304l-0.256-3.2 13.664 13.664-1.472 1.504-11.936-11.968zM26.624 24.352l0.448 0.448-1.088 2.624-1.216-1.216 1.856-1.856zM27.072 28.48l1.088-2.592 0.8 0.8-1.088 2.592-0.8-0.8zM30.208 29.76v0c-0.256 0.256-0.576 0.384-0.928 0.384-0.096 0-0.16 0-0.224 0l0.992-2.4 0.16 0.192c0.256 0.224 0.384 0.576 0.384 0.928s-0.128 0.672-0.384 0.896z" />
</svg>
